<mxfile host="app.diagrams.net" modified="2022-07-19T07:36:57.846Z" agent="5.0 (Windows NT 10.0; Win64; x64) AppleWebKit/537.36 (KHTML, like Gecko) Chrome/103.0.0.0 Safari/537.36" etag="CYEche7xyO_T8uLMsgly" version="20.1.1" type="github">
  <diagram id="4RL0QO2y5Sd6n8bJavTg" name="Page-1">
    <mxGraphModel dx="1609" dy="685" grid="0" gridSize="10" guides="1" tooltips="1" connect="1" arrows="1" fold="1" page="0" pageScale="1" pageWidth="827" pageHeight="1169" math="0" shadow="0">
      <root>
        <mxCell id="0" />
        <mxCell id="1" parent="0" />
        <mxCell id="w3NTAJaa0J1Jvlo2QH89-1" value="AutoEncoder-Ensemble-SplitFinetune" style="swimlane;fontSize=16;" vertex="1" parent="1">
          <mxGeometry x="-15" y="93" width="851" height="476" as="geometry" />
        </mxCell>
        <mxCell id="w3NTAJaa0J1Jvlo2QH89-2" style="rounded=0;orthogonalLoop=1;jettySize=auto;html=1;exitX=0.5;exitY=1;exitDx=0;exitDy=0;entryX=0.5;entryY=0;entryDx=0;entryDy=0;fontSize=16;" edge="1" parent="w3NTAJaa0J1Jvlo2QH89-1" source="w3NTAJaa0J1Jvlo2QH89-6" target="w3NTAJaa0J1Jvlo2QH89-8">
          <mxGeometry relative="1" as="geometry" />
        </mxCell>
        <mxCell id="w3NTAJaa0J1Jvlo2QH89-32" style="edgeStyle=none;rounded=0;orthogonalLoop=1;jettySize=auto;html=1;exitX=0.5;exitY=1;exitDx=0;exitDy=0;entryX=0.5;entryY=0;entryDx=0;entryDy=0;" edge="1" parent="w3NTAJaa0J1Jvlo2QH89-1" source="w3NTAJaa0J1Jvlo2QH89-6" target="w3NTAJaa0J1Jvlo2QH89-10">
          <mxGeometry relative="1" as="geometry" />
        </mxCell>
        <mxCell id="w3NTAJaa0J1Jvlo2QH89-6" value="&lt;font style=&quot;font-size: 18px;&quot;&gt;Encoder-1&lt;/font&gt;" style="rounded=0;whiteSpace=wrap;html=1;" vertex="1" parent="w3NTAJaa0J1Jvlo2QH89-1">
          <mxGeometry x="129" y="130" width="120" height="60" as="geometry" />
        </mxCell>
        <mxCell id="w3NTAJaa0J1Jvlo2QH89-7" style="edgeStyle=none;rounded=0;orthogonalLoop=1;jettySize=auto;html=1;exitX=0.5;exitY=1;exitDx=0;exitDy=0;entryX=0.5;entryY=0;entryDx=0;entryDy=0;" edge="1" parent="w3NTAJaa0J1Jvlo2QH89-1" source="w3NTAJaa0J1Jvlo2QH89-8" target="w3NTAJaa0J1Jvlo2QH89-17">
          <mxGeometry relative="1" as="geometry" />
        </mxCell>
        <mxCell id="w3NTAJaa0J1Jvlo2QH89-8" value="&lt;font style=&quot;font-size: 18px;&quot;&gt;Decoder-1-1&lt;br&gt;&lt;/font&gt;" style="rounded=0;whiteSpace=wrap;html=1;fillColor=#dae8fc;strokeColor=#6c8ebf;" vertex="1" parent="w3NTAJaa0J1Jvlo2QH89-1">
          <mxGeometry x="28" y="251" width="120" height="60" as="geometry" />
        </mxCell>
        <mxCell id="w3NTAJaa0J1Jvlo2QH89-9" style="edgeStyle=none;rounded=0;orthogonalLoop=1;jettySize=auto;html=1;exitX=0.5;exitY=1;exitDx=0;exitDy=0;entryX=0.5;entryY=0;entryDx=0;entryDy=0;" edge="1" parent="w3NTAJaa0J1Jvlo2QH89-1" source="w3NTAJaa0J1Jvlo2QH89-10" target="w3NTAJaa0J1Jvlo2QH89-17">
          <mxGeometry relative="1" as="geometry" />
        </mxCell>
        <mxCell id="w3NTAJaa0J1Jvlo2QH89-10" value="&lt;font style=&quot;font-size: 18px;&quot;&gt;Decoder-1-N&lt;br&gt;&lt;/font&gt;" style="rounded=0;whiteSpace=wrap;html=1;fillColor=#dae8fc;strokeColor=#6c8ebf;" vertex="1" parent="w3NTAJaa0J1Jvlo2QH89-1">
          <mxGeometry x="213" y="251" width="120" height="60" as="geometry" />
        </mxCell>
        <mxCell id="w3NTAJaa0J1Jvlo2QH89-36" style="edgeStyle=none;rounded=0;orthogonalLoop=1;jettySize=auto;html=1;exitX=0.5;exitY=1;exitDx=0;exitDy=0;entryX=0.5;entryY=0;entryDx=0;entryDy=0;" edge="1" parent="w3NTAJaa0J1Jvlo2QH89-1" source="w3NTAJaa0J1Jvlo2QH89-12" target="w3NTAJaa0J1Jvlo2QH89-35">
          <mxGeometry relative="1" as="geometry" />
        </mxCell>
        <mxCell id="w3NTAJaa0J1Jvlo2QH89-12" value="&lt;font style=&quot;font-size: 18px;&quot;&gt;Decoder-K-1&lt;br&gt;&lt;/font&gt;" style="rounded=0;whiteSpace=wrap;html=1;fillColor=#dae8fc;strokeColor=#6c8ebf;" vertex="1" parent="w3NTAJaa0J1Jvlo2QH89-1">
          <mxGeometry x="380" y="251" width="120" height="60" as="geometry" />
        </mxCell>
        <mxCell id="w3NTAJaa0J1Jvlo2QH89-37" style="edgeStyle=none;rounded=0;orthogonalLoop=1;jettySize=auto;html=1;exitX=0.5;exitY=1;exitDx=0;exitDy=0;entryX=0.5;entryY=0;entryDx=0;entryDy=0;" edge="1" parent="w3NTAJaa0J1Jvlo2QH89-1" source="w3NTAJaa0J1Jvlo2QH89-14" target="w3NTAJaa0J1Jvlo2QH89-35">
          <mxGeometry relative="1" as="geometry" />
        </mxCell>
        <mxCell id="w3NTAJaa0J1Jvlo2QH89-14" value="&lt;span style=&quot;font-size: 18px;&quot;&gt;Decoder-K-N&lt;/span&gt;" style="rounded=0;whiteSpace=wrap;html=1;fillColor=#dae8fc;strokeColor=#6c8ebf;" vertex="1" parent="w3NTAJaa0J1Jvlo2QH89-1">
          <mxGeometry x="631" y="253" width="120" height="60" as="geometry" />
        </mxCell>
        <mxCell id="w3NTAJaa0J1Jvlo2QH89-15" value="······" style="text;html=1;align=center;verticalAlign=middle;resizable=0;points=[];autosize=1;strokeColor=none;fillColor=none;fontSize=16;" vertex="1" parent="w3NTAJaa0J1Jvlo2QH89-1">
          <mxGeometry x="543" y="267.5" width="50" height="31" as="geometry" />
        </mxCell>
        <mxCell id="w3NTAJaa0J1Jvlo2QH89-16" style="edgeStyle=none;rounded=0;orthogonalLoop=1;jettySize=auto;html=1;exitX=0.5;exitY=1;exitDx=0;exitDy=0;entryX=0.5;entryY=0;entryDx=0;entryDy=0;" edge="1" parent="w3NTAJaa0J1Jvlo2QH89-1" source="w3NTAJaa0J1Jvlo2QH89-17" target="w3NTAJaa0J1Jvlo2QH89-18">
          <mxGeometry relative="1" as="geometry" />
        </mxCell>
        <mxCell id="w3NTAJaa0J1Jvlo2QH89-17" value="ElementwiseMean" style="ellipse;whiteSpace=wrap;html=1;fontSize=16;fillColor=#fff2cc;strokeColor=#d6b656;" vertex="1" parent="w3NTAJaa0J1Jvlo2QH89-1">
          <mxGeometry x="108" y="356" width="173" height="49" as="geometry" />
        </mxCell>
        <mxCell id="w3NTAJaa0J1Jvlo2QH89-18" value="Output1" style="rounded=1;whiteSpace=wrap;html=1;fontSize=16;" vertex="1" parent="w3NTAJaa0J1Jvlo2QH89-1">
          <mxGeometry x="148.5" y="434" width="92" height="29" as="geometry" />
        </mxCell>
        <mxCell id="w3NTAJaa0J1Jvlo2QH89-19" value="" style="endArrow=classic;html=1;rounded=0;fontSize=16;" edge="1" parent="w3NTAJaa0J1Jvlo2QH89-1">
          <mxGeometry width="50" height="50" relative="1" as="geometry">
            <mxPoint x="683" y="450" as="sourcePoint" />
            <mxPoint x="725" y="450" as="targetPoint" />
          </mxGeometry>
        </mxCell>
        <mxCell id="w3NTAJaa0J1Jvlo2QH89-20" value="training flow" style="text;html=1;align=center;verticalAlign=middle;resizable=0;points=[];autosize=1;strokeColor=none;fillColor=none;fontSize=16;" vertex="1" parent="w3NTAJaa0J1Jvlo2QH89-1">
          <mxGeometry x="738" y="433" width="104" height="31" as="geometry" />
        </mxCell>
        <mxCell id="w3NTAJaa0J1Jvlo2QH89-21" style="edgeStyle=none;rounded=0;orthogonalLoop=1;jettySize=auto;html=1;exitX=0.5;exitY=1;exitDx=0;exitDy=0;entryX=0.5;entryY=0;entryDx=0;entryDy=0;" edge="1" parent="w3NTAJaa0J1Jvlo2QH89-1" source="w3NTAJaa0J1Jvlo2QH89-22" target="w3NTAJaa0J1Jvlo2QH89-6">
          <mxGeometry relative="1" as="geometry" />
        </mxCell>
        <mxCell id="w3NTAJaa0J1Jvlo2QH89-27" style="edgeStyle=none;rounded=0;orthogonalLoop=1;jettySize=auto;html=1;exitX=0.5;exitY=1;exitDx=0;exitDy=0;entryX=0.5;entryY=0;entryDx=0;entryDy=0;" edge="1" parent="w3NTAJaa0J1Jvlo2QH89-1" source="w3NTAJaa0J1Jvlo2QH89-22" target="w3NTAJaa0J1Jvlo2QH89-24">
          <mxGeometry relative="1" as="geometry" />
        </mxCell>
        <mxCell id="w3NTAJaa0J1Jvlo2QH89-22" value="&lt;font style=&quot;font-size: 18px;&quot;&gt;online-data&lt;/font&gt;" style="rounded=0;whiteSpace=wrap;html=1;" vertex="1" parent="w3NTAJaa0J1Jvlo2QH89-1">
          <mxGeometry x="328" y="46" width="120" height="60" as="geometry" />
        </mxCell>
        <mxCell id="w3NTAJaa0J1Jvlo2QH89-30" style="edgeStyle=none;rounded=0;orthogonalLoop=1;jettySize=auto;html=1;exitX=0.5;exitY=1;exitDx=0;exitDy=0;entryX=0.5;entryY=0;entryDx=0;entryDy=0;" edge="1" parent="w3NTAJaa0J1Jvlo2QH89-1" source="w3NTAJaa0J1Jvlo2QH89-24" target="w3NTAJaa0J1Jvlo2QH89-12">
          <mxGeometry relative="1" as="geometry" />
        </mxCell>
        <mxCell id="w3NTAJaa0J1Jvlo2QH89-34" style="edgeStyle=none;rounded=0;orthogonalLoop=1;jettySize=auto;html=1;exitX=0.5;exitY=1;exitDx=0;exitDy=0;entryX=0.5;entryY=0;entryDx=0;entryDy=0;" edge="1" parent="w3NTAJaa0J1Jvlo2QH89-1" source="w3NTAJaa0J1Jvlo2QH89-24" target="w3NTAJaa0J1Jvlo2QH89-14">
          <mxGeometry relative="1" as="geometry" />
        </mxCell>
        <mxCell id="w3NTAJaa0J1Jvlo2QH89-24" value="&lt;font style=&quot;font-size: 18px;&quot;&gt;Encoder-K&lt;/font&gt;" style="rounded=0;whiteSpace=wrap;html=1;" vertex="1" parent="w3NTAJaa0J1Jvlo2QH89-1">
          <mxGeometry x="511" y="130" width="120" height="60" as="geometry" />
        </mxCell>
        <mxCell id="w3NTAJaa0J1Jvlo2QH89-33" value="······" style="text;html=1;align=center;verticalAlign=middle;resizable=0;points=[];autosize=1;strokeColor=none;fillColor=none;fontSize=16;" vertex="1" parent="w3NTAJaa0J1Jvlo2QH89-1">
          <mxGeometry x="156" y="265.5" width="50" height="31" as="geometry" />
        </mxCell>
        <mxCell id="w3NTAJaa0J1Jvlo2QH89-40" style="edgeStyle=none;rounded=0;orthogonalLoop=1;jettySize=auto;html=1;exitX=0.5;exitY=1;exitDx=0;exitDy=0;entryX=0.5;entryY=0;entryDx=0;entryDy=0;" edge="1" parent="w3NTAJaa0J1Jvlo2QH89-1" source="w3NTAJaa0J1Jvlo2QH89-35" target="w3NTAJaa0J1Jvlo2QH89-39">
          <mxGeometry relative="1" as="geometry" />
        </mxCell>
        <mxCell id="w3NTAJaa0J1Jvlo2QH89-35" value="ElementwiseMean" style="ellipse;whiteSpace=wrap;html=1;fontSize=16;fillColor=#fff2cc;strokeColor=#d6b656;" vertex="1" parent="w3NTAJaa0J1Jvlo2QH89-1">
          <mxGeometry x="478" y="356" width="173" height="49" as="geometry" />
        </mxCell>
        <mxCell id="w3NTAJaa0J1Jvlo2QH89-39" value="Output2" style="rounded=1;whiteSpace=wrap;html=1;fontSize=16;" vertex="1" parent="w3NTAJaa0J1Jvlo2QH89-1">
          <mxGeometry x="518.5" y="434" width="92" height="29" as="geometry" />
        </mxCell>
      </root>
    </mxGraphModel>
  </diagram>
</mxfile>
